<svg xmlns="http://www.w3.org/2000/svg" width="45.333" height="34" viewBox="0 0 45.333 34"><defs><style>.a{fill:#ff8705;}</style></defs><path class="a" d="M44.271,92.333A1.066,1.066,0,0,1,45.333,93.4v3.542A1.066,1.066,0,0,1,44.271,98H1.063A1.066,1.066,0,0,1,0,96.937V65.062A1.066,1.066,0,0,1,1.063,64H4.6a1.066,1.066,0,0,1,1.063,1.062V92.333ZM33,72.456l-7.5,5L17.947,67.391a1.064,1.064,0,0,0-1.762.089L8.5,80.292V89.5h34L34.54,72.872A1.063,1.063,0,0,0,33,72.456Z" transform="translate(0 -64)"/></svg>