<svg xmlns="http://www.w3.org/2000/svg" width="41.846" height="34" viewBox="0 0 41.846 34"><defs><style>.a{fill:#fff;}</style></defs><path class="a" d="M6.538,74.154H1.308A1.308,1.308,0,0,0,0,75.462v5.231A1.308,1.308,0,0,0,1.308,82H6.538a1.308,1.308,0,0,0,1.308-1.308V75.462A1.308,1.308,0,0,0,6.538,74.154ZM6.538,48H1.308A1.308,1.308,0,0,0,0,49.308v5.231a1.308,1.308,0,0,0,1.308,1.308H6.538a1.308,1.308,0,0,0,1.308-1.308V49.308A1.308,1.308,0,0,0,6.538,48Zm0,13.077H1.308A1.308,1.308,0,0,0,0,62.385v5.231a1.308,1.308,0,0,0,1.308,1.308H6.538a1.308,1.308,0,0,0,1.308-1.308V62.385A1.308,1.308,0,0,0,6.538,61.077Zm34,14.385H14.385a1.308,1.308,0,0,0-1.308,1.308v2.615a1.308,1.308,0,0,0,1.308,1.308H40.538a1.308,1.308,0,0,0,1.308-1.308V76.769A1.308,1.308,0,0,0,40.538,75.462Zm0-26.154H14.385a1.308,1.308,0,0,0-1.308,1.308v2.615a1.308,1.308,0,0,0,1.308,1.308H40.538a1.308,1.308,0,0,0,1.308-1.308V50.615A1.308,1.308,0,0,0,40.538,49.308Zm0,13.077H14.385a1.308,1.308,0,0,0-1.308,1.308v2.615a1.308,1.308,0,0,0,1.308,1.308H40.538a1.308,1.308,0,0,0,1.308-1.308V63.692A1.308,1.308,0,0,0,40.538,62.385Z" transform="translate(0 -48)"/></svg>