<svg xmlns="http://www.w3.org/2000/svg" width="26.63" height="26.63" viewBox="0 0 26.63 26.63"><defs><style>.a{fill:#a5a4a6;}</style></defs><path class="a" d="M18.362,93.315l7.57-7.571a2.38,2.38,0,0,0,0-3.365L24.25,80.7a2.38,2.38,0,0,0-3.365,0l-7.57,7.57L5.744,80.7a2.38,2.38,0,0,0-3.365,0L.7,82.379a2.38,2.38,0,0,0,0,3.365l7.57,7.571L.7,100.885a2.38,2.38,0,0,0,0,3.365l1.683,1.683a2.38,2.38,0,0,0,3.365,0l7.57-7.571,7.57,7.571a2.38,2.38,0,0,0,3.365,0l1.682-1.683a2.38,2.38,0,0,0,0-3.365Z" transform="translate(0 -80)"/></svg>